<?xml version="1.0" encoding="UTF-8" standalone="no"?>
<!-- Created with Inkscape (http://www.inkscape.org/) -->

<svg
   width="200mm"
   height="200mm"
   viewBox="0 0 200 200"
   version="1.1"
   id="svg5"
   xmlns="http://www.w3.org/2000/svg"
   xmlns:svg="http://www.w3.org/2000/svg">
  <defs
     id="defs2">
    <rect
       x="267.55399"
       y="162.27583"
       width="272.91846"
       height="52.974346"
       id="rect11751" />
  </defs>
  <rect
     style="fill:none;stroke:#0e9fff;stroke-width:1.66013;stroke-opacity:1"
     id="rect9877"
     width="116.00622"
     height="154.32787"
     x="41.743603"
     y="22.780203"
     ry="5.0071435" />
  <g
     id="g11464"
     transform="matrix(0.83006121,0,0,0.83006121,20.190752,5.2028697)">
    <circle
       style="fill:none;stroke:#0e9fff;stroke-width:2;stroke-opacity:1"
       id="path10677"
       cx="94.91935"
       cy="115.5"
       r="33.177422" />
    <path
       style="fill:none;stroke:#0e9fff;stroke-width:2;stroke-opacity:1"
       d="m 94.387095,81.967741 c -20.531973,25.814579 -10.670957,46.713169 0,66.354839"
       id="path11405" />
    <path
       style="fill:none;stroke:#0e9fff;stroke-width:2;stroke-opacity:1"
       d="M 95.806449,149.03226 C 105.93977,131.10479 114.59783,109.58974 94.741935,81.967741"
       id="path11407" />
    <path
       style="fill:none;stroke:#0e9fff;stroke-width:2;stroke-opacity:1"
       d="M 94.387095,82.677417 C 51.861605,106.5404 77.615494,141.07269 95.096773,148.32258"
       id="path11409" />
    <path
       style="fill:none;stroke:#0e9fff;stroke-width:2;stroke-opacity:1"
       d="m 94.032257,82.322579 c 30.790453,12.845703 31.670433,54.089971 1.064516,65.645161"
       id="path11411" />
    <path
       style="fill:none;stroke:#0e9fff;stroke-width:2;stroke-opacity:1"
       d="m 64.403226,101.22392 c 22.927293,-7.09262 42.389524,-4.884289 60.854834,0"
       id="path11450" />
    <path
       style="fill:none;stroke:#0e9fff;stroke-width:2;stroke-opacity:1"
       d="M 61.919355,114.70161 H 127.91935"
       id="path11452" />
    <path
       style="fill:none;stroke:#0e9fff;stroke-width:2;stroke-opacity:1"
       d="m 64.580645,129.51613 c 20.107525,5.09315 40.215055,4.11054 60.322575,0"
       id="path11454" />
  </g>
  <rect
     style="fill:#0e9fff;fill-opacity:1;stroke:#0e9fff;stroke-width:1.66013;stroke-opacity:1"
     id="rect11466"
     width="68.332787"
     height="5.3016815"
     x="64.371429"
     y="140.98482" />
  <rect
     style="fill:#0e9fff;fill-opacity:1;stroke:#0e9fff;stroke-width:1.66013;stroke-opacity:1"
     id="rect11466-8"
     width="68.332787"
     height="5.3016815"
     x="64.445061"
     y="151.52646" />
  <text
     xml:space="preserve"
     transform="matrix(0.50716477,0,0,0.64247219,-79.507647,-61.430511)"
     id="text11749"
     style="font-size:26.6667px;letter-spacing:5px;white-space:pre;shape-inside:url(#rect11751);fill:#0e9fff;fill-opacity:1;stroke:#0e9fff;stroke-width:7.55906;stroke-opacity:1"><tspan
       x="267.55469"
       y="186.60423"
       id="tspan12685"><tspan
         style="stroke-width:3.77953"
         id="tspan12683">PASSPORT</tspan></tspan></text>
</svg>
