<svg width="1920" height="103" viewBox="0 0 1920 103" fill="none" xmlns="http://www.w3.org/2000/svg">
<g id="waveBottom_duotone" clip-path="url(#clip0_1:2)">
<path id="waveBack" d="M1152 71.9999C960 142.5 768.5 71.9999 768.5 71.9999C768.5 71.9999 576.5 1.49985 384.5 71.9999C192.5 142.5 1 71.9999 1 71.9999L0.5 1.99999L1919.5 2.00002V71.9999C1727.5 142.5 1536 71.9999 1536 71.9999C1536 71.9999 1344 1.49985 1152 71.9999Z" fill="#9A90F4"/>
<path id="waveFront" d="M767.5 72.0003C575.5 142.5 384 72.0003 384 72.0003C384 72.0003 192 1.50032 0 72.0004V0H1919V72.0003C1919 72.0003 1727 1.50025 1535 72.0003C1343 142.5 1151.5 72.0003 1151.5 72.0003C1151.5 72.0003 959.5 1.50025 767.5 72.0003Z" fill="#6C5EE5"/>
</g>
<defs>
<clipPath id="clip0_1:2">
<rect width="1920" height="103" fill="white" transform="matrix(1 0 0 -1 0 103)"/>
</clipPath>
</defs>
</svg>
