<svg width="1920" height="141" viewBox="0 0 1920 141" fill="none" xmlns="http://www.w3.org/2000/svg">
<g id="wave" clip-path="url(#clip0_2:2)">
<path id="waveBack" d="M768 71.3334C576 0.833298 384.5 71.3334 384.5 71.3334L384 141.333H1535.5V71.3334C1343.5 0.833298 1152 71.3334 1152 71.3334C1152 71.3334 960 141.833 768 71.3334Z" fill="#9A90F4"/>
<path id="waveFront" d="M384 70.5001C192 5.72205e-05 0.5 70.5001 0.5 70.5001L0 142.5H1920V70.5001C1728 5.72205e-05 1535.5 70.5001 1535.5 70.5001C1535.5 70.5001 1343.5 141 1151.5 70.5001C959.5 5.72205e-05 768 70.5001 768 70.5001C768 70.5001 576 141 384 70.5001Z" fill="#6C5EE5"/>
</g>
<defs>
<clipPath id="clip0_2:2">
<rect width="1920" height="140.556" fill="white"/>
</clipPath>
</defs>
</svg>
